<!DOCTYPE svg PUBLIC "-//W3C//DTD SVG 1.1//EN" "http://www.w3.org/Graphics/SVG/1.1/DTD/svg11.dtd">
<svg xmlns="http://www.w3.org/2000/svg" viewBox="0 0 512 512">
  <path fill="#F2705B" d="M180.7 158.9h150.6v21.6H180.7z"/>
  <path fill="#324A5E" d="M360.1 410.1H151.9c-1.4 0-2.5-1.1-2.5-2.5V182.9c0-1.4 1.1-2.5 2.5-2.5h208.3c1.4 0 2.5 1.1 2.5 2.5v224.6c0 1.5-1.2 2.6-2.6 2.6z"/>
  <path fill="#89D6F7" d="M177.4 204.6h157.1v37.8H177.4z"/>
  <path fill="#E5E8EC" d="M180.7 267.9h22.2v22.2h-22.2zM244.9 267.9h22.2v22.2h-22.2zM309.1 267.9h22.2v22.2h-22.2zM180.7 312.8h22.2V335h-22.2zM244.9 312.8h22.2V335h-22.2zM309.1 312.8h22.2V335h-22.2zM180.7 357.6h22.2v22.2h-22.2zM244.9 357.6h22.2v22.2h-22.2zM309.1 357.6h22.2v22.2h-22.2z"/>
  <path fill="#FFF" d="M195.6 82.2h120.1v98.2H195.6z"/>
  <path fill="#E5E8EC" d="M215.2 104.1H296v10.4h-80.8zM215.2 131.7H296v10.4h-80.8zM215.2 159.3h46.6v10.4h-46.6z"/>
</svg>