<!DOCTYPE svg PUBLIC "-//W3C//DTD SVG 1.1//EN" "http://www.w3.org/Graphics/SVG/1.1/DTD/svg11.dtd">
<svg xmlns="http://www.w3.org/2000/svg" viewBox="0 0 512 512">
  <path fill="#F7B34C" d="M375.9 410.3H136.1c-1.1 0-1.9-.9-1.9-1.9V121.7c0-1.1.9-1.9 1.9-1.9H376c1.1 0 1.9.9 1.9 1.9v286.7c-.1 1.1-.9 1.9-2 1.9z"/>
  <path fill="#FFF" d="M158.9 144.6h194.2v241H158.9z"/>
  <path fill="#324A5E" d="M299.7 101.6h-20.6v-7.1c0-12.1-8.8-22.9-20.9-24-13.8-1.3-25.4 9.5-25.4 23v8.1h-20.6c-5.1 0-9.2 4.1-9.2 9.2v55.1h105.8v-55.1c.1-5.1-4-9.2-9.1-9.2z"/>
  <path fill="#F2705B" d="M184.5 182.6h37.2v37.2h-37.2z"/>
  <path fill="#FFCF5C" d="M184.5 249.7h37.2v37.2h-37.2z"/>
  <path fill="#324A5E" d="M184.5 316.9h37.2v37.2h-37.2z"/>
  <path fill="#65C5B8" d="M239 192.2h89.5v11.4H239zM239 259.9h89.5v11.4H239zM239 327.5h89.5v11.4H239z"/>
</svg>