<!DOCTYPE svg PUBLIC "-//W3C//DTD SVG 1.1//EN" "http://www.w3.org/Graphics/SVG/1.1/DTD/svg11.dtd">
<svg xmlns="http://www.w3.org/2000/svg" viewBox="0 0 512 512">
  <path fill="#324A5E" d="M345.3 282.5h-83.6v-51.9h-11.3v51.9h-83.6c-13.5 0-24.6 11-24.6 24.6v89.3h11.7v-89.3c0-7.1 5.8-12.8 12.8-12.8h47.4v76.4h11.7v-76.4h60.3v99.5h11.7v-99.5h47.4c7.1 0 12.8 5.8 12.8 12.8v59.5h11.7v-59.5c.2-13.6-10.9-24.6-24.4-24.6z"/>
  <path fill="#FFF" d="M391.2 156.6c2.2-4.6 3.5-9.6 3.5-15 0-19-15.4-34.4-34.4-34.4-5.2 0-10.2 1.2-14.6 3.3-11-19.9-32.1-33.3-56.5-33.3-13.7 0-26.4 4.3-36.9 11.7-12.6-14.4-31.2-23.5-51.8-23.5-38.1 0-69 30.9-69 69 0 5.7.8 11.1 2 16.4-18.5 5.5-32.1 22.6-32.1 42.9 0 24.7 20 44.8 44.8 44.8h219.7c24.7 0 44.8-20 44.8-44.8-.1-15.6-7.8-29.1-19.5-37.1z"/>
  <circle fill="#FFF" cx="364" cy="366.6" r="31.9"/>
  <circle fill="#FF7058" cx="364" cy="366.6" r="20.2"/>
  <circle fill="#FFF" cx="292" cy="393.8" r="31.9"/>
  <circle fill="#FF7058" cx="292" cy="393.8" r="20.2"/>
  <g>
    <circle fill="#FFF" cx="220" cy="370.7" r="31.9"/>
    <circle fill="#FF7058" cx="220" cy="370.7" r="20.2"/>
  </g>
  <g>
    <circle fill="#FFF" cx="148" cy="393.8" r="31.9"/>
    <circle fill="#FF7058" cx="148" cy="393.8" r="20.2"/>
  </g>
</svg>