<!DOCTYPE svg PUBLIC "-//W3C//DTD SVG 1.1//EN" "http://www.w3.org/Graphics/SVG/1.1/DTD/svg11.dtd">
<svg xmlns="http://www.w3.org/2000/svg" viewBox="0 0 512 512">
  <path fill="#324A5E" d="M396.1 141.8H115.9c-4.7 0-8.4 3.8-8.4 8.4v211.6c0 4.7 3.8 8.4 8.4 8.4h280.2c4.7 0 8.4-3.8 8.4-8.4V150.2c.1-4.6-3.7-8.4-8.4-8.4z"/>
  <path fill="#E5E8EC" d="M123.8 159.6h264.4v170H123.8z"/>
  <circle fill="#E5E8EC" cx="256" cy="349.9" r="6.9"/>
  <circle fill="#FFF" cx="330.5" cy="231.6" r="36.3"/>
  <path fill="#F2705B" d="M351 217.8h-8.8c-.6 0-1.1.4-1.3 1l-1.6 5.5-29.3.2c-.4 0-.9.2-1.1.6-.2.4-.3.8-.1 1.3l6.9 15.8c.2.5.7.8 1.2.8h18.9c.6 0 1.1-.4 1.3-1l6.1-21.5h7.8c.7 0 1.3-.6 1.3-1.3 0-.8-.6-1.4-1.3-1.4zm-26.8 9.3v5h-9.9l-2.1-4.9 12-.1zm-8.8 7.7h8.8v5.5h-6.4l-2.4-5.5zm19.4 5.5h-8v-5.5h9.5l-1.5 5.5zm2.3-8.2h-10.3v-5l11.8-.1-1.5 5.1z"/>
  <g fill="#324A5E">
    <circle cx="321.3" cy="248.3" r="3.3"/>
    <circle cx="330.9" cy="248.3" r="3.3"/>
  </g>
  <g fill="#65C5B8">
    <path d="M150.1 194.4H256v9.1H150.1zM150.1 224.9H256v9.1H150.1zM150.1 255.3H256v9.1H150.1zM150.1 285.7h52.8v9.1h-52.8z"/>
  </g>
</svg>
