<!DOCTYPE svg PUBLIC "-//W3C//DTD SVG 1.1//EN" "http://www.w3.org/Graphics/SVG/1.1/DTD/svg11.dtd">
<svg xmlns="http://www.w3.org/2000/svg" viewBox="0 0 128 128">
  <path fill="#FFF" d="M31.5 47.3h10v42.1h-10zM49.8 47.3h10v42.1h-10zM68.1 47.3h10v42.1h-10zM86.5 47.3h10v42.1h-10z"/>
  <path fill="#E6E9EE" d="M106.2 48.2l-41.4-35c-.5-.4-1.1-.4-1.6 0l-41.4 35c-.9.7-.4 2.2.8 2.2h82.7c1.2 0 1.8-1.4.9-2.2z"/>
  <path fill="#FFF" d="M34.7 44.7L64 19.9l29.3 24.8z"/>
  <g fill="#CED5E0">
    <path d="M84.7 50.3V53c0 .7.6 1.2 1.2 1.2H97c.7 0 1.2-.6 1.2-1.2v-2.8H84.7zM66.4 50.3V53c0 .7.6 1.2 1.2 1.2h11.1c.7 0 1.2-.6 1.2-1.2v-2.8H66.4zM48.1 50.3V53c0 .7.6 1.2 1.2 1.2h11.1c.7 0 1.2-.6 1.2-1.2v-2.8H48.1zM29.8 50.3V53c0 .7.6 1.2 1.2 1.2h11.1c.7 0 1.2-.6 1.2-1.2v-2.8H29.8z"/>
  </g>
  <g fill="#CED5E0">
    <path d="M84.7 89.4v-2.8c0-.7.6-1.2 1.2-1.2H97c.7 0 1.2.6 1.2 1.2v2.8H84.7zM66.4 89.4v-2.8c0-.7.6-1.2 1.2-1.2h11.1c.7 0 1.2.6 1.2 1.2v2.8H66.4zM48.1 89.4v-2.8c0-.7.6-1.2 1.2-1.2h11.1c.7 0 1.2.6 1.2 1.2v2.8H48.1zM29.8 89.4v-2.8c0-.7.6-1.2 1.2-1.2h11.1c.7 0 1.2.6 1.2 1.2v2.8H29.8z"/>
  </g>
  <path fill="#2B3B4E" d="M7.8 94.6C18.7 114.5 39.8 128 64 128s45.3-13.5 56.2-33.4H7.8z"/>
  <path fill="#E6E9EE" d="M22.7 89.4h82.5v5.2H22.7z"/>
</svg>