<!DOCTYPE svg PUBLIC "-//W3C//DTD SVG 1.1//EN" "http://www.w3.org/Graphics/SVG/1.1/DTD/svg11.dtd">
<svg xmlns="http://www.w3.org/2000/svg" viewBox="0 0 128 128">
  <g fill="#FFF">
    <path d="M60.9 32.2c-7.3 0-13.3 5.9-13.3 13.3s5.9 13.3 13.3 13.3 13.3-5.9 13.3-13.3-6-13.3-13.3-13.3zm0 21.8c-4.7 0-8.6-3.9-8.6-8.6 0-4.7 3.9-8.6 8.6-8.6 4.7 0 8.6 3.9 8.6 8.6 0 4.8-3.9 8.6-8.6 8.6z"/>
    <path d="M60.9 22.2c-12.8 0-23.3 10.4-23.3 23.3S48 68.7 60.9 68.7s23.3-10.4 23.3-23.3-10.5-23.2-23.3-23.2zm0 41.9c-10.3 0-18.6-8.4-18.6-18.6s8.4-18.6 18.6-18.6 18.6 8.4 18.6 18.6-8.4 18.6-18.6 18.6z"/>
  </g>
  <path fill="#324A5E" d="M62.1 105.8h20.8c4.2 0 7.5-3.4 7.5-7.5V77c0-2.3-1.7-4.2-4-4.4-2.5-.2-4.5 1.8-4.5 4.2v-1.5c0-2.3-1.9-4.2-4.2-4.2-2.3 0-4.2 1.9-4.2 4.2v-1.4c0-2.3-1.7-4.2-4-4.4-2.5-.1-4.5 1.9-4.5 4.3V48c0-2.3-1.7-4.2-4-4.4-2.5-.2-4.5 1.8-4.5 4.2v26.5l-1.4-2c-2.7-3.8-7.3-4.3-10.5-1.2 3.3 4.5 5.6 9.6 6.9 15l3.4 13.9c.7 3.5 3.8 5.8 7.2 5.8z"/>
</svg>