<!DOCTYPE svg PUBLIC "-//W3C//DTD SVG 1.1//EN" "http://www.w3.org/Graphics/SVG/1.1/DTD/svg11.dtd">
<svg xmlns="http://www.w3.org/2000/svg" viewBox="0 0 128 128">
  <path fill="#FFF" d="M95.2 31.1H32.8c-2.9 0-5.2 2.3-5.2 5.2v55.5c0 2.9 2.3 5.2 5.2 5.2h62.3c2.9 0 5.2-2.3 5.2-5.2V36.2c0-2.8-2.3-5.1-5.1-5.1z"/>
  <path fill="#FF7058" d="M100.3 45.8v-9.5c0-2.9-2.3-5.2-5.2-5.2H32.8c-2.9 0-5.2 2.3-5.2 5.2v9.5h72.7z"/>
  <g fill="#FFF">
    <path d="M35.4 36.7h36.2v3.1H35.4zM92.6 40.9l-2.5-2.5 2.5-2.5-1.6-1.6-2.5 2.6-2.5-2.6-1.5 1.6 2.5 2.5-2.5 2.5 1.5 1.6 2.5-2.6 2.5 2.6z"/>
  </g>
  <circle fill="#324A5E" cx="63.8" cy="71.6" r="14.1"/>
  <path fill="#E6E9EE" d="M70.8 70.7l-8.6-6.5c-.7-.6-1.8 0-1.8.9V78c0 .9 1.1 1.5 1.8.9l8.6-6.4c.6-.5.6-1.4 0-1.8z"/>
</svg>