<!DOCTYPE svg PUBLIC "-//W3C//DTD SVG 1.1//EN" "http://www.w3.org/Graphics/SVG/1.1/DTD/svg11.dtd">
<svg xmlns="http://www.w3.org/2000/svg" viewBox="0 0 128 128">
  <g fill="#324A5E">
    <path d="M111.6 72.7c-.5-3.5-3.1-6.2-6.5-7l-4.6-1c-1.7-.4-2.9-1.9-2.9-3.7v-1.2c1.5-1.3 2.7-3.2 3.3-5.4.7.1 1.4-.8 1.6-2 .1-.9-.1-1.8-.6-2.1 0-1-.1-2.7-.1-3.6 0-.9-.1-1.9-.3-2.8-.3-.9-.8-1.8-1.6-2.2-.2-.1-.5-.2-.8-.3v-.2c-.1-.3-.3-.6-.6-.9-1.8-1.7-4.6-2.1-7-1.9-1.1.1-2.2.3-3.2.8-.7.4-1.3.9-1.9 1.5-2.3 2.5-3.4 6.1-2.9 9.5-.5.3-.8 1.2-.7 2.2.1 1.2.8 2.1 1.6 2 .6 2.2 1.8 4.1 3.3 5.4v1.1c0 1.7-1.2 3.3-2.9 3.6l-4.7 1.1c-3.4.8-5.9 3.6-6.4 7l-1.4 9.9H113l-1.4-9.8zM54.3 72.7c-.5-3.5-3.1-6.2-6.5-7l-4.6-1c-1.7-.4-2.9-1.9-2.9-3.7v-1.2c1.5-1.3 2.7-3.2 3.3-5.4.7.1 1.4-.8 1.6-2 .1-.9-.1-1.8-.6-2.1 0-1-.1-2.7-.1-3.6 0-.9-.1-1.9-.3-2.8-.3-.9-.8-1.8-1.6-2.2-.2-.1-.5-.2-.8-.3v-.2c-.1-.3-.3-.6-.6-.9-1.8-1.7-4.6-2.1-7-1.9-1.1.1-2.2.3-3.2.8-.7.4-1.3.9-1.9 1.5-2.3 2.5-3.4 6.1-2.9 9.5-.5.3-.8 1.2-.7 2.2.1 1.2.8 2.1 1.6 2 .6 2.2 1.8 4.1 3.3 5.4v1.1c0 1.7-1.2 3.3-2.9 3.6l-4.7 1.1c-3.4.8-5.9 3.6-6.4 7L15 82.5h40.7l-1.4-9.8z"/>
  </g>
  <path fill="#FFF" d="M90.7 79.4c-.7-4.9-4.3-8.8-9.1-9.9L75.1 68c-2.4-.5-4.1-2.7-4.1-5.2v-3H57.1v2.9c0 2.5-1.7 4.6-4.1 5.1l-6.6 1.5c-4.8 1.1-8.4 5-9 9.8l-2 13.9h57.4l-2.1-13.6z"/>
  <g fill="#FFF">
    <ellipse transform="rotate(6.927 76.061 50.493)" cx="76" cy="50.5" rx="1.8" ry="3.1"/>
    <ellipse transform="rotate(173.073 51.964 50.487)" cx="52" cy="50.5" rx="1.8" ry="3.1"/>
  </g>
  <ellipse fill="#FFF" cx="64" cy="48.7" rx="12.2" ry="15.2"/>
  <path fill="#324A5E" d="M73.1 34.8c.3.9-.3 1.9-1.1 2.6-1 .9-5 2.4-6.4 2.5-2.9.2-4.3-2.3-7.2-1.9-2.3.3-2.9 2-4.1 4-.8 1.3-1.3 2.7-1.5 4.1-.1.5-.1 1-.5 1.4-.3.4-1 .5-1.3.1-.7-4.8.9-9.9 4.1-13.4.8-.8 1.6-1.6 2.6-2.1 1.4-.7 2.9-1 4.5-1.2 3.5-.3 7.3.2 9.9 2.6.5.4.9.8 1 1.3z"/>
  <path fill="#324A5E" d="M69.1 36.3c-.3.4-.6.9-.6 1.4 0 .3.1.6.2.9.6 2 2 3.7 3.7 4.9.9.7 2 1.3 2.5 2.3.2.5.3 2.4.7 2.8s1 .6 1.3.2c.2-.2.2-.5.1-.8 0-1.3-.1-4-.1-5.4 0-1.3-.1-2.7-.5-3.9-.4-1.3-1.1-2.5-2.2-3.2-1.6-1-3.8-.6-5.1.8z"/>
</svg>