<!DOCTYPE svg PUBLIC "-//W3C//DTD SVG 1.1//EN" "http://www.w3.org/Graphics/SVG/1.1/DTD/svg11.dtd">
<svg xmlns="http://www.w3.org/2000/svg" viewBox="0 0 512 512">
  <path fill="#324A5E" d="M375.6 124.8C344.1 96 302.2 78.5 256.1 78.5c-46.1 0-88 17.5-119.6 46.3l36 36c22.3-19.6 51.6-31.5 83.6-31.5 32 0 61.2 11.9 83.6 31.5l35.9-36z"/>
  <path fill="#2C9984" d="M433.5 247.7c-1.9-42.8-19-81.6-46.1-111.2l-36 36c17.9 20.4 29.3 46.5 31.2 75.3h50.9z"/>
  <path fill="#FF7058" d="M78.5 256c0 98 79.5 177.5 177.6 177.5 46.1 0 88-17.5 119.5-46.3l-36-36c-22.3 19.6-51.5 31.5-83.5 31.5-70 0-126.8-56.7-126.8-126.7 0-32 11.9-61.2 31.5-83.6l-36-36C96.1 168 78.5 210 78.5 256z"/>
  <path fill="#FFD05B" d="M387.4 375.5c27.1-29.6 44.2-68.5 46.1-111.2h-50.9c-1.8 28.8-13.3 54.9-31.2 75.3l36 35.9z"/>
  <g fill="#FFF">
    <path d="M180.7 243.5h19v70.2h-19zM213.6 220.8h19v92.9h-19zM246.5 261h19v52.6h-19zM279.4 226.5h19v87.2h-19zM312.3 193h19v120.6h-19z"/>
  </g>
</svg>