<!DOCTYPE svg PUBLIC "-//W3C//DTD SVG 1.1//EN" "http://www.w3.org/Graphics/SVG/1.1/DTD/svg11.dtd">
<svg xmlns="http://www.w3.org/2000/svg" viewBox="0 0 128 128">
  <path fill="#FFF" d="M95.4 53.5c4.2-4.2 5.7-9.9 4.7-15.3L91.3 47l-10.7-2.9-2.9-10.7 8.9-8.9c-5.4-1-11.2.5-15.3 4.7-4.7 4.7-6.1 11.5-4.1 17.5L30.9 79.4c-4.4 3.9-4.5 10.7-.4 14.8 4.1 4.1 10.9 4 14.8-.4L78 57.6c5.9 2 12.7.6 17.4-4.1zM35.2 89.6a3.32 3.32 0 0 1 0-4.7c1.3-1.3 3.4-1.3 4.7 0 1.3 1.3 1.3 3.4 0 4.7-1.3 1.2-3.4 1.2-4.7 0z"/>
  <path fill="#FF7058" d="M72 64.2L60.5 52.7 30.9 79.4c-4.4 3.9-4.5 10.7-.4 14.8 4.1 4.1 10.9 4 14.8-.4L72 64.2zM35.2 89.6a3.32 3.32 0 0 1 0-4.7c1.3-1.3 3.4-1.3 4.7 0 1.3 1.3 1.3 3.4 0 4.7-1.3 1.2-3.4 1.2-4.7 0z"/>
  <g>
    <path fill="#FFF" d="M42.5 38.3l-8.1-5.5-5.7 5.7 5.5 8.1 5.9 1.8L62 70.3l4.2-4.2-21.9-21.9z"/>
    <path fill="#324A5E" d="M68.5 57.7l-1 1-.8.8-11.3 11.3-.8.8-1 1c-1 1-.5 2.8 1 3 1.1.1 2.5.5 3.9 1.1 1.3.5 2.4 1.3 3.4 2.3l23.8 23.8c1.2 1.2 3.2 1.2 4.4 0l8.6-8.6c1.2-1.2 1.2-3.2 0-4.4L74.9 66c-1-1-1.7-2.1-2.3-3.4-.6-1.5-.9-2.8-1.1-3.9-.2-1.5-2-2-3-1z"/>
    <g fill="#E6E9EE">
      <path d="M66 74.6c-.6.6-.6 1.6 0 2.2l19.4 19.4c.6.6 1.6.6 2.2 0 .6-.6.6-1.6 0-2.2L68.1 74.6c-.6-.6-1.6-.6-2.1 0zM70.5 70.1c-.6.6-.6 1.6 0 2.2l19.4 19.4c.6.6 1.6.6 2.2 0 .6-.6.6-1.6 0-2.2L72.6 70.1c-.5-.6-1.5-.6-2.1 0z"/>
    </g>
  </g>
</svg>
