<!DOCTYPE svg PUBLIC "-//W3C//DTD SVG 1.1//EN" "http://www.w3.org/Graphics/SVG/1.1/DTD/svg11.dtd">
<svg xmlns="http://www.w3.org/2000/svg" viewBox="0 0 512 512">
  <path fill="#FFF" d="M384 175h-8.2c.2-2 .3-4 .3-6.1 0-37.3-30.2-67.6-67.6-67.6-15.4 0-29.5 5.2-40.9 13.9-15.4-26.6-44.1-44.6-77.1-44.6-49.2 0-89 39.8-89 89 0 7.3 1 14.3 2.6 21-17.6 8.8-29.8 26.9-29.8 48 0 29.6 24 53.6 53.6 53.6H384c29.6 0 53.6-24 53.6-53.6S413.6 175 384 175z"/>
  <path fill="#395767" d="M389.1 398.9v71.8c-4.1 2.6-8.3 5-12.6 7.3v-79.1c0-8.1-6.6-14.7-14.6-14.7H184.4c-15 0-27.3-12.2-27.3-27.2s12.2-27.3 27.3-27.3h93.9c8.1 0 14.6-6.6 14.6-14.7v-56.9h12.6V315c0 15-12.2 27.3-27.3 27.3h-93.9c-8.1 0-14.7 6.6-14.7 14.7 0 8 6.6 14.6 14.7 14.6h177.4c15.2 0 27.4 12.2 27.4 27.3z"/>
  <path fill="#F1543F" d="M260.7 208.3V237c0 20.2 16.3 36.5 36.5 36.5s36.5-16.3 36.5-36.5v-28.7h-73z"/>
  <g fill="#324A5E">
    <path d="M274.2 158.7c-3.2 0-5.8 2.6-5.8 5.8v31.6h11.7v-31.6c0-3.2-2.6-5.8-5.9-5.8zM320.2 158.7c-3.2 0-5.8 2.6-5.8 5.8v31.6H326v-31.6c0-3.2-2.6-5.8-5.8-5.8z"/>
  </g>
  <path fill="#FF7058" d="M256 196.2h82.4v13.4H256z"/>
</svg>