<!DOCTYPE svg PUBLIC "-//W3C//DTD SVG 1.1//EN" "http://www.w3.org/Graphics/SVG/1.1/DTD/svg11.dtd">
<svg xmlns="http://www.w3.org/2000/svg" viewBox="0 0 128 128">
  <path fill="#2B3B4E" d="M76.4 68.1v.3l-2.7-2.9c-3.3-3.6-3.7-9-.7-13l3.2-4.3c4-5.4 11.9-5.5 16.1-.3-9.2 2.2-15.9 10.5-15.9 20.2z"/>
  <circle fill="#324A5E" cx="97.3" cy="68.2" r="20.9"/>
  <circle fill="#84DBFF" cx="97.3" cy="68.2" r="15.4"/>
  <path fill="#54C0EB" d="M105.1 68.1c0 4.3-3.5 7.8-7.8 7.8s-7.8-3.5-7.8-7.8c0-.4 0-.8.1-1.2 1.1-.2 2.5-1.2 3.8-2.6 1.1-1.3 1.9-2.7 2.1-3.8.6-.1 1.2-.2 1.9-.2 4.2 0 7.7 3.5 7.7 7.8z"/>
  <ellipse transform="rotate(-48.507 91.527 62.76)" fill="#FFF" cx="91.5" cy="62.8" rx="5.3" ry="2.4"/>
  <path fill="#324A5E" d="M60.1 54.5l-3.2 2.2c-.3-1.5-.9-2.9-1.8-4.2l-3.2-4.3c-.4-.6-.9-1.1-1.3-1.5l5.4-1.1c-.1.5-.1 1-.1 1.6-.2 3.2 1.6 5.9 4.2 7.3zM77.5 46.7c-.5.4-.9.9-1.3 1.5L73 52.5c-.9 1.3-1.5 2.7-1.8 4.2L68 54.5c2.6-1.4 4.3-4.1 4.3-7.3 0-.5 0-1.1-.1-1.6l5.3 1.1z"/>
  <path fill="#2B3B4E" d="M54.3 65.5l-2.7 2.9v-.3c0-9.8-6.7-18-15.8-20.3 4.1-5.1 12.1-5 16.1.3l3.2 4.3c2.9 4.1 2.5 9.5-.8 13.1z"/>
  <path fill="#324A5E" d="M51.6 68.1v.3C51.5 79.8 42.2 89 30.7 89 19.2 89 9.9 79.7 9.9 68.1c0-11.5 9.3-20.9 20.9-20.9 1.7 0 3.4.2 5 .6 9.1 2.3 15.8 10.6 15.8 20.3z"/>
  <circle fill="#84DBFF" cx="30.7" cy="68.2" r="15.4"/>
  <path fill="#54C0EB" d="M38.6 68.1c0 4.3-3.5 7.8-7.8 7.8S23 72.4 23 68.1s3.5-7.8 7.8-7.8c.7 0 1.3.1 1.9.2.2 1.1.9 2.5 2.1 3.8 1.2 1.4 2.7 2.3 3.8 2.6-.1.4 0 .8 0 1.2z"/>
  <ellipse transform="scale(-1) rotate(48.507 139.3 -80.972)" fill="#FFF" cx="36.5" cy="62.8" rx="5.3" ry="2.4"/>
  <circle fill="#FFF" cx="64" cy="47.2" r="8.3"/>
  <circle fill="#E6E9EE" cx="64" cy="47.2" r="4.9"/>
</svg>