<!DOCTYPE svg PUBLIC "-//W3C//DTD SVG 1.1//EN" "http://www.w3.org/Graphics/SVG/1.1/DTD/svg11.dtd">
<svg xmlns="http://www.w3.org/2000/svg" viewBox="0 0 128 128">
  <path fill="#F9B54C" d="M99.4 42.2c-.3-1-1.2-1.8-2.3-1.8H30.9c-1.1 0-2 .8-2.3 1.8.2-1.3 1-2.5 2.1-3.3L42.3 31c.9-.6 2.1-1 3.2-1h37.1c1.1 0 2.2.3 3.2 1l11.5 8c1.2.7 1.9 1.9 2.1 3.2z"/>
  <path fill="#FFD05B" d="M99.5 95.5V42.8c0-1.3-1.1-2.4-2.4-2.4H30.9c-1.3 0-2.4 1.1-2.4 2.4v52.7c0 1.3 1.1 2.4 2.4 2.4h66.2c1.3 0 2.4-1.1 2.4-2.4zM28.5 42.8v-.4.6-.2zM99.5 42.8V42.4v.4z"/>
  <path fill="#FF7058" d="M58.7 40.4h10.6v8.1H58.7z"/>
  <path fill="#F1543F" d="M61 30.1l-2.3 10.3h10.6L67 30.1z"/>
  <g fill="#FFF">
    <path d="M49.9 71.2H36.3c-1.4 0-2.5 1.1-2.5 2.5v13.6c0 1.4 1.1 2.5 2.5 2.5h13.6c1.4 0 2.5-1.1 2.5-2.5V73.7c0-1.3-1.1-2.5-2.5-2.5zM51 87.3c0 .6-.5 1.1-1.1 1.1H36.3c-.6 0-1.1-.5-1.1-1.1V73.7c0-.6.5-1.1 1.1-1.1h13.6c.6 0 1.1.5 1.1 1.1v13.6z"/>
    <path d="M40.3 76.3c-.1-.1-.1-.1-.2-.1s-.2-.1-.3-.1c-.1 0-.2 0-.3.1-.1 0-.2.1-.2.1L37 78.6c-.3.3-.3.7 0 .9.3.3.7.3.9 0l1.2-1.2v5.9c0 .4.3.7.7.7.4 0 .7-.3.7-.7v-5.9l1.2 1.2c.1.1.3.2.5.2s.3-.1.5-.2c.3-.3.3-.7 0-.9l-2.4-2.3zM46.9 76.3c-.1-.1-.3-.2-.5-.2s-.4.1-.5.2l-2.3 2.3c-.3.3-.3.7 0 .9.3.3.7.3.9 0l1.2-1.2v5.9c0 .4.3.7.7.7.4 0 .7-.3.7-.7v-5.9l1.2 1.2c.1.1.3.2.5.2s.3-.1.5-.2c.3-.3.3-.7 0-.9l-2.4-2.3zM70.8 71.2H57.2c-1.4 0-2.5 1.1-2.5 2.5v13.6c0 1.4 1.1 2.5 2.5 2.5h13.6c1.4 0 2.5-1.1 2.5-2.5V73.7c0-1.3-1.1-2.5-2.5-2.5zM72 87.3c0 .6-.5 1.1-1.1 1.1H57.2c-.6 0-1.1-.5-1.1-1.1V73.7c0-.6.5-1.1 1.1-1.1h13.6c.6 0 1.1.5 1.1 1.1v13.6z"/>
    <path d="M67 75h-5.9c-.4 0-.7.3-.7.7v3.2c0 1.8 1.3 3.3 3 3.6v2.2h-.9c-.4 0-.7.3-.7.7 0 .4.3.7.7.7h3.2c.4 0 .7-.3.7-.7 0-.4-.3-.7-.7-.7h-.9v-2.2c1.7-.3 3-1.8 3-3.6v-3.2c-.1-.4-.4-.7-.8-.7zm-.7 3.9c0 1.3-1 2.3-2.3 2.3-1.3 0-2.3-1-2.3-2.3v-2.6h4.6v2.6zM91.7 71.2H78.1c-1.4 0-2.5 1.1-2.5 2.5v13.6c0 1.4 1.1 2.5 2.5 2.5h13.6c1.4 0 2.5-1.1 2.5-2.5V73.7c0-1.3-1.2-2.5-2.5-2.5zm1.1 16.1c0 .6-.5 1.1-1.1 1.1H78.1c-.6 0-1.1-.5-1.1-1.1V73.7c0-.6.5-1.1 1.1-1.1h13.6c.6 0 1.1.5 1.1 1.1v13.6z"/>
    <path d="M84.9 74.1c-3.3 0-6 2.7-6 6 0 .4.3.7.7.7h4.7v4.5c0 .2-.2.4-.4.4s-.4-.2-.4-.4c0-.4-.3-.7-.7-.7-.4 0-.7.3-.7.7 0 1 .8 1.8 1.8 1.8s1.8-.8 1.8-1.8v-4.5h4.7c.4 0 .7-.3.7-.7-.2-3.3-2.9-6-6.2-6zm-4.6 5.3c.3-2.3 2.3-4 4.6-4s4.3 1.7 4.6 4h-9.2z"/>
  </g>
</svg>