<!DOCTYPE svg PUBLIC "-//W3C//DTD SVG 1.1//EN" "http://www.w3.org/Graphics/SVG/1.1/DTD/svg11.dtd">
<svg xmlns="http://www.w3.org/2000/svg" viewBox="0 0 512 512">
  <path fill="#FFCF5C" d="M392.3 190.2l-225.1.2c-9.4 0-17 7.6-17 17l.1 135.8c0 9.4 7.6 17 17 17l225.1-.2c9.4 0 17-7.6 17-17l-.1-135.8c0-9.5-7.6-17.1-17-17z"/>
  <path fill="#324A5E" d="M150.3 233.6h259v37.7h-259z"/>
  <path opacity=".41" fill="#324A5E" d="M149.9 190.2h214.4V311H149.9z"/>
  <path fill="#FFF" d="M102.6 151.9h256.3v153.6H102.6z"/>
  <path fill="#65C5B8" d="M347 246.3v-35.2c-26-.1-47.1-21.3-47.1-47.3h-138c0 26.1-21.2 47.3-47.4 47.3v35.2c26.2 0 47.4 21.2 47.4 47.3h138c0-26 21.1-47.2 47.1-47.3z"/>
  <ellipse fill="#2C9883" cx="230.7" cy="228.7" rx="35.5" ry="49.1"/>
  <path fill="#FFF" d="M232.7 248.5v6.2h-4.1v-6c-3.8 0-7.4-.9-10.7-2.6v-7.9c1.1.9 2.7 1.7 4.9 2.5s4.1 1.2 5.8 1.3v-10.3c-4.4-1.6-7.4-3.4-9.1-5.3-1.6-1.9-2.4-4.3-2.4-7 0-3 1-5.5 3.1-7.6 2.1-2.1 4.9-3.3 8.3-3.6v-5.3h4.1v5.2c4 .2 7 .8 8.9 1.9v7.7c-2.6-1.6-5.6-2.6-8.9-2.9v10.7c4.1 1.5 7.1 3.2 8.9 5.1 1.8 1.9 2.7 4.2 2.7 7 0 3.1-1 5.7-3 7.6-1.9 1.7-4.7 2.9-8.5 3.3zm-4.1-24.8v-9c-2.6.5-3.9 1.8-3.9 4.1 0 1.9 1.3 3.6 3.9 4.9zm4.1 9.5v8.6c2.7-.4 4.1-1.8 4.1-4.1 0-1.8-1.4-3.3-4.1-4.5z"/>
</svg>