<!DOCTYPE svg PUBLIC "-//W3C//DTD SVG 1.1//EN" "http://www.w3.org/Graphics/SVG/1.1/DTD/svg11.dtd">
<svg xmlns="http://www.w3.org/2000/svg" viewBox="0 0 512 512">
  <path fill="#F9B54C" d="M82.1 439c45.3 43.1 106.5 69.5 173.9 69.5S384.6 482 429.9 439H82.1z"/>
  <path fill="#EDF2F2" d="M207.4 379.5h97.1V420h-97.1z"/>
  <path opacity=".45" fill="#395767" d="M207.4 379.5h97.1v12.3h-97.1z"/>
  <path fill="#FFF" d="M326.4 420H185.6c-.3 0-.6.3-.6.6v17.9c0 .3.2.6.6.6h140.9c.3 0 .6-.3.6-.6v-17.9c-.1-.4-.4-.6-.7-.6zM411.7 130.4H100.3c-2 0-3.7 1.7-3.7 3.7v241.7c0 2 1.7 3.7 3.7 3.7h311.3c2 0 3.7-1.7 3.7-3.7V134.1c0-2-1.6-3.7-3.6-3.7z"/>
  <path fill="#2DB39A" d="M114.4 148.2h283.3v187.7H114.4z"/>
  <g>
    <path fill="#395767" d="M238.1 238.3h35.7v7.8h-35.7z"/>
    <g fill="#324A5E">
      <path d="M279.9 182.3s43.6 22.1 36.6 79.5c0 0-12.1-23.5-36.6-23.5M232.1 182.3s-43.6 22.1-36.6 79.5c0 0 12.1-23.5 36.6-23.5"/>
    </g>
    <path fill="#FF7058" d="M256 72.9c-6.7 0-23.6 40.5-23.9 83.9v81.6H280v-81.6c-.4-43.5-18-83.9-24-83.9z"/>
    <ellipse fill="#FFF" cx="256" cy="129.1" rx="10.7" ry="21.4"/>
    <path fill="#FFF" d="M240.1 253.7l-7.4 27.8 17-17.5 6.6 21.9 5.9-21.9 17.1 17.8-6.3-28.1z"/>
  </g>
</svg>
