<!DOCTYPE svg PUBLIC "-//W3C//DTD SVG 1.1//EN" "http://www.w3.org/Graphics/SVG/1.1/DTD/svg11.dtd">
<svg xmlns="http://www.w3.org/2000/svg" viewBox="0 0 128 128">
  <path fill="#E6E9EE" d="M64 108.5c-45.4-22-42.1-72.8-42.1-72.8C41.9 38.3 64 19.5 64 19.5s22.1 18.9 42.1 16.2c0 0 3.3 50.8-42.1 72.8z"/>
  <path fill="#FF7058" d="M97.4 44.1c-.4 4.6-1.3 10.9-3.5 17.8-.3 1-.7 2-1 3H64V30c7 4.9 19.8 12.6 33.4 14.1z"/>
  <path fill="#FFF" d="M92.8 64.8C87.3 79.9 77.6 91.4 64 99.1V64.8h28.8zM64 64.8H35.2c-3-8-4.2-15.4-4.6-20.7C44.2 42.6 57 34.9 64 30v34.8z"/>
  <path fill="#FF7058" d="M64 64.8V99c-15.9-9-24.4-22.2-28.8-34.2H64z"/>
</svg>