<!DOCTYPE svg PUBLIC "-//W3C//DTD SVG 1.1//EN" "http://www.w3.org/Graphics/SVG/1.1/DTD/svg11.dtd">
<svg xmlns="http://www.w3.org/2000/svg" viewBox="0 0 512 512">
  <path fill="#FFF" d="M392.4 100.4L373 80.9l-19.5 19.5L334 80.9l-19.5 19.5L295 80.9l-19.5 19.5L256 80.9l-19.5 19.5L217 80.9l-19.5 19.5L178 80.9l-19.5 19.5L139 80.9l-19.4 19.5v311.2l19.4 19.5 19.5-19.5 19.5 19.5 19.5-19.5 19.5 19.5 19.5-19.5 19.5 19.5 19.5-19.5 19.5 19.5 19.5-19.5 19.5 19.5 19.5-19.5 19.5 19.5 19.4-19.5z"/>
  <path fill="#CED5E0" d="M133 169.5h246.1v5H133zM133 343.8h246.1v5H133z"/>
  <g fill="#FF7058">
    <path d="M201.6 140.4c0 4-1.6 6.5-4.7 7.7l6.3 8.9h-6.8l-5.5-7.9H187v7.9h-5.5v-24.8h9.4c3.8 0 6.6.6 8.2 1.9 1.7 1.3 2.5 3.4 2.5 6.3zm-6.7 3c.7-.6 1-1.6 1-2.9 0-1.3-.4-2.3-1.1-2.7-.7-.5-1.9-.7-3.7-.7H187v7.3h4c1.9-.1 3.2-.4 3.9-1zM225.1 132.2v4.9h-12.3v5.1h11.1v4.7h-11.1v5.1h12.7v4.9h-18.2v-24.8h17.8zM241.8 152.1c2.7 0 4.9-1.1 6.7-3.2l3.5 3.6c-2.8 3.2-6.1 4.7-9.9 4.7-3.8 0-7-1.2-9.4-3.6-2.5-2.4-3.7-5.4-3.7-9.1 0-3.7 1.3-6.7 3.8-9.2 2.5-2.5 5.6-3.7 9.2-3.7 4.1 0 7.5 1.5 10.2 4.6l-3.4 3.9c-1.7-2.2-3.9-3.3-6.5-3.3-2.1 0-3.9.7-5.3 2-1.5 1.4-2.2 3.2-2.2 5.5s.7 4.1 2.1 5.5c1.2 1.6 2.9 2.3 4.9 2.3zM274.2 132.2v4.9h-12.3v5.1H273v4.7h-11.1v5.1h12.7v4.9h-18.2v-24.8h17.8zM279.5 132.2h5.5V157h-5.5v-24.8zM308.1 134.4c1.7 1.5 2.6 3.7 2.6 6.8 0 3.1-.9 5.3-2.7 6.7-1.8 1.4-4.5 2.1-8.2 2.1h-3.3v6.9H291v-24.8h8.7c3.9.1 6.7.8 8.4 2.3zm-4 9.8c.7-.7 1-1.8 1-3.3 0-1.4-.4-2.4-1.3-3-.9-.6-2.2-.9-4-.9h-3.2v8.3h3.7c1.9 0 3.1-.4 3.8-1.1zM325.5 137v20H320v-20h-7v-4.8h19.5v4.8h-7z"/>
  </g>
  <g fill="#E6E9EE">
    <path d="M148.6 194.8h74.3v6.7h-74.3zM148.6 207.6h52.8v6.7h-52.8z"/>
  </g>
  <g fill="#E6E9EE">
    <path d="M148.6 246.3h74.3v6.7h-74.3zM148.6 259.1h52.8v6.7h-52.8z"/>
  </g>
  <g fill="#E6E9EE">
    <path d="M148.6 297.7h74.3v6.7h-74.3zM148.6 310.5h52.8v6.7h-52.8z"/>
  </g>
  <g fill="#E6E9EE">
    <path d="M332.6 194.8h25.1v6.7h-25.1zM332.6 246.3h25.1v6.7h-25.1zM332.6 297.7h25.1v6.7h-25.1z"/>
  </g>
  <g fill="#4CDBC4">
    <path d="M243 369.5v15.1h-4.2v-15.1h-5.3v-3.6h14.8v3.6H243zM266.6 382.1c-1.9 1.8-4.2 2.8-7 2.8s-5.1-.9-7-2.8c-1.9-1.9-2.8-4.2-2.8-6.9 0-2.8.9-5 2.8-6.9 1.9-1.8 4.2-2.8 7-2.8s5.1.9 7 2.8c1.9 1.9 2.8 4.1 2.8 6.9 0 2.7-1 5-2.8 6.9zm-1.5-6.9c0-1.7-.5-3.1-1.6-4.3-1.1-1.2-2.4-1.8-3.9-1.8-1.6 0-2.9.6-4 1.8-1.1 1.2-1.6 2.6-1.6 4.3 0 1.7.5 3.1 1.6 4.3 1.1 1.2 2.4 1.8 4 1.8s2.9-.6 3.9-1.8c1.1-1.2 1.6-2.6 1.6-4.3zM280.3 369.5v15.1h-4.2v-15.1h-5.3v-3.6h14.8v3.6h-5.3zM300.7 384.7l-1.7-4h-7.8l-1.7 4h-4.4l8.1-18.7h4l8.1 18.7h-4.6zm-5.7-13.2l-2.4 5.4h4.7l-2.3-5.4zM307.3 384.7V366h4.2v15h8v3.7h-12.2z"/>
  </g>
</svg>