<!DOCTYPE svg PUBLIC "-//W3C//DTD SVG 1.1//EN" "http://www.w3.org/Graphics/SVG/1.1/DTD/svg11.dtd">
<svg xmlns="http://www.w3.org/2000/svg" viewBox="0 0 128 128">
  <path fill="#E6E9EE" d="M79.3 28.2H35.4c-1.7 0-3 1.4-3 3v65.6c0 1.7 1.4 3 3 3h43.9c1.7 0 3-1.4 3-3V31.2c0-1.7-1.3-3-3-3z"/>
  <path fill="#54C0EB" d="M36.4 38.1h41.9v51.8H36.4z"/>
  <path fill="#CED5E0" d="M62.5 34.3H52.1c-.6 0-1.1-.5-1.1-1.1 0-.6.5-1.1 1.1-1.1h10.4c.6 0 1.1.5 1.1 1.1.1.6-.4 1.1-1.1 1.1z"/>
  <circle fill="#CED5E0" cx="57.3" cy="94.9" r="2.4"/>
  <path fill="#CED5E0" d="M48.1 32h-.5c-.6 0-1.1.5-1.1 1.1 0 .6.5 1.1 1.1 1.1h.5c.6 0 1.1-.5 1.1-1.1.1-.6-.5-1.1-1.1-1.1z"/>
  <path fill="#FFF" d="M86.7 39.8c-12.6 0-22.8 8.3-22.8 18.6 0 5.1 2.5 9.6 6.5 13l-5 9.8 11.6-6c3 1.1 6.3 1.8 9.7 1.8 12.6 0 22.8-8.3 22.8-18.6S99.3 39.8 86.7 39.8z"/>
  <g fill="#E6E9EE">
    <path d="M74.8 50.1h24.7v3.1H74.8zM74.8 56.9h24.7V60H74.8zM74.8 63.8h24.7v3.1H74.8z"/>
  </g>
</svg>