<!DOCTYPE svg PUBLIC "-//W3C//DTD SVG 1.1//EN" "http://www.w3.org/Graphics/SVG/1.1/DTD/svg11.dtd">
<svg xmlns="http://www.w3.org/2000/svg" viewBox="0 0 128 128">
  <path fill="#FFD05B" d="M115 45.5s-16.2-3-25.7-.9c0 0-11.2 1.1-14.3.1 0 0-7.7-1.9-8.1 10.1 0 0-2.4 23.9 3.1 22.6l2.9 2.1s2 6.3 6.6 4.9c0 0 5.6 4.2 7.7-4.5 0 0 1.5-3.2 12.6-3.9 0 0 9.3-2.6 10.5-4.3 0 0 3.9 1 7.8-2.9 0 0 2.1-1.7 9.2 2 .2-2.2.4-4.5.4-6.7 0-6.4-1-12.6-2.7-18.4-2.7-.3-6.8-.7-10-.2z"/>
  <path fill="#F9B54C" d="M82.1 59.1c-2.5-.9-6.7-7.3-6.7-7.3s1.4 3.7 3.7 5.7c0 0-3.6-1.9-3.5-2.3 0 0 .9 1.7 2.4 2.5 0 0 1.3 1.1 2.2.8 0 0-.2 3.4-3.3 3.9 0 0-2.3.1-3.9-.8 0 0 2.1 2.2 3 2.1 0 0-.5 1.8.6 2.4 0 0-4.5 1.9-5.8 5.7 0 0 3.1-4 6-4.7 0 0 3.6-1.3 2.6 3.1 0 0 1.2-1 .1-3.5 0 0-2.3-1.6.8-5.7 0 0 5.1-2.6 2.5 5 0 0 2.5-2.2 1.2-5.3 0-.1 0-1-1.9-1.6z"/>
  <path fill="#F9B54C" d="M80.1 70.3c-2.5-.1-5.2 3.7-5.2 3.7-1.9 3.3-4.9 3.4-4.9 3.4l2.9 2.1s.2.5.5 1.3c0-1 .1-1.9.1-1.9.6-5.5 6.5-7.9 6.5-7.9 1.8-1.1 2-3.9 2-3.9-.4 1.9-1.9 3.2-1.9 3.2zM127.5 65.4c-2.1-.4-3.9-.5-5.4-.3 0 0-.7-2.7 4.9-4.1 0 0-9.6-1.3-15.5 8.1 0 0-3.4-.1-5.5 2.7 0 0 2.2-4.2 1.5-5.6 0 0-1.2 5.5-6.7 6.5 0 0 1.8-3.7 1.1-5.2 0 0-.7 3.4-2.4 4.6l-1.3-.9s-2.5 5.4-10.3 5.8c0 0-6.1 3-8.6 7.4.3.2 5.7 4 7.7-4.5 0 0 1.5-3.2 12.6-3.9 0 0 9.3-2.6 10.5-4.3 0 0 3.9 1 7.8-2.9 0 0 2.1-1.7 9.2 2 .1-.7.1-1.4.2-2-.2 0-.3-.1-.5-.1 0 0 .2 0 .5.1.1-1.2.1-2.3.2-3.4z"/>
  <path fill="#FFD05B" d="M54.8 49.3c-3.2.8-14.3-1-14.3-1-9.3-2.7-25.7-.7-25.7-.7-4.8-1.1-11.9-.4-11.9-.4h-.2C1.2 52.6.4 58.2.4 64.1c0 2.7.2 5.3.5 8 7.4-3.3 9.4-1.5 9.4-1.5 3.7 4.2 7.6 3.4 7.6 3.4 1.1 1.7 10.2 4.9 10.2 4.9 11 1.4 12.3 4.7 12.3 4.7 1.6 8.8 7.4 5 7.4 5 4.5 1.7 6.9-4.4 6.9-4.4l3-1.9C63.2 84 62.3 60 62.3 60c.3-12.2-7.5-10.7-7.5-10.7z"/>
  <path fill="#F9B54C" d="M46.8 63.1c2.6-.7 7.1-6.9 7.1-6.9s-1.7 3.6-4.1 5.5c0 0 3.7-1.7 3.7-2.1 0 0-1 1.7-2.6 2.3 0 0-1.4 1-2.2.6 0 0 0 3.4 3.1 4.1 0 0 2.3.3 3.9-.6 0 0-2.2 2.1-3.1 1.9 0 0 .4 1.9-.8 2.4 0 0 4.4 2.2 5.5 6.1 0 0-2.8-4.2-5.7-5 0 0-3.5-1.5-2.8 3 0 0-1.1-1.1.1-3.5 0 0 2.4-1.5-.5-5.7 0 0-4.9-2.9-2.8 4.8 0 0-2.4-2.4-.9-5.4.1-.1.2-.9 2.1-1.5z"/>
  <path fill="#F9B54C" d="M48.1 74.5c2.5.1 5 4.1 5 4.1 1.6 3.3 4.7 3.6 4.7 3.6l-3 1.9s-.2.5-.6 1.2c.1-1 .1-1.9.1-1.9-.3-5.5-6-8.2-6-8.2-1.7-1.2-1.7-4-1.7-4 0 1.9 1.5 3.3 1.5 3.3zM39.8 80.6c-7.7-.9-9.9-6.4-9.9-6.4l-1.3.8c-1.6-1.3-2.1-4.7-2.1-4.7-.8 1.5.8 5.3.8 5.3-5.4-1.4-6.2-7-6.2-7-.8 1.4 1.1 5.7 1.1 5.7-1.9-3-5.3-3.1-5.3-3.1-5.3-9.7-15-9-15-9 5.5 1.8 4.6 4.4 4.6 4.4-1.6-.4-3.7-.3-6 0 0 1.1.1 2.1.2 3.2.5-.1.7-.1.7-.1-.3 0-.5.1-.7.2.1.7.1 1.3.2 2 7.4-3.3 9.4-1.5 9.4-1.5 3.7 4.2 7.6 3.4 7.6 3.4 1.1 1.7 10.2 4.9 10.2 4.9 11 1.4 12.3 4.7 12.3 4.7 1.5 8.6 7.2 5.1 7.4 5-2.2-4.4-8-7.8-8-7.8z"/>
</svg>